<mxfile host="app.diagrams.net" modified="2023-12-19T09:54:55.555Z" agent="Mozilla/5.0 (Windows NT 10.0; Win64; x64) AppleWebKit/537.36 (KHTML, like Gecko) Chrome/118.0.5993.771 YaBrowser/23.11.2.771 Yowser/2.5 Safari/537.36" etag="p0hCPdAnsPOcneUHky-0" version="22.1.11" type="device">
  <diagram name="Page-1" id="13e1069c-82ec-6db2-03f1-153e76fe0fe0">
    <mxGraphModel dx="1099" dy="1469" grid="1" gridSize="10" guides="1" tooltips="1" connect="1" arrows="1" fold="1" page="1" pageScale="1" pageWidth="1100" pageHeight="850" background="none" math="0" shadow="0">
      <root>
        <mxCell id="0" />
        <mxCell id="1" parent="0" />
        <mxCell id="u7iF0jcWyzdp6KOEpQAe-1" value="Заказ" style="shape=umlLifeline;perimeter=lifelinePerimeter;whiteSpace=wrap;html=1;container=1;collapsible=0;recursiveResize=0;outlineConnect=0;rounded=1;shadow=0;comic=0;labelBackgroundColor=none;strokeWidth=1;fontFamily=Verdana;fontSize=12;align=center;" parent="1" vertex="1">
          <mxGeometry x="330" y="-730" width="100" height="370" as="geometry" />
        </mxCell>
        <mxCell id="u7iF0jcWyzdp6KOEpQAe-2" value="" style="html=1;points=[];perimeter=orthogonalPerimeter;rounded=0;shadow=0;comic=0;labelBackgroundColor=none;strokeWidth=1;fontFamily=Verdana;fontSize=12;align=center;" parent="u7iF0jcWyzdp6KOEpQAe-1" vertex="1">
          <mxGeometry x="45" y="90" width="10" height="230" as="geometry" />
        </mxCell>
        <mxCell id="u7iF0jcWyzdp6KOEpQAe-3" value="Услуга" style="shape=umlLifeline;perimeter=lifelinePerimeter;whiteSpace=wrap;html=1;container=1;collapsible=0;recursiveResize=0;outlineConnect=0;rounded=1;shadow=0;comic=0;labelBackgroundColor=none;strokeWidth=1;fontFamily=Verdana;fontSize=12;align=center;" parent="1" vertex="1">
          <mxGeometry x="620" y="-730" width="100" height="370" as="geometry" />
        </mxCell>
        <mxCell id="u7iF0jcWyzdp6KOEpQAe-4" value="" style="html=1;points=[];perimeter=orthogonalPerimeter;rounded=0;shadow=0;comic=0;labelBackgroundColor=none;strokeWidth=1;fontFamily=Verdana;fontSize=12;align=center;" parent="u7iF0jcWyzdp6KOEpQAe-3" vertex="1">
          <mxGeometry x="45" y="180" width="10" height="140" as="geometry" />
        </mxCell>
        <mxCell id="u7iF0jcWyzdp6KOEpQAe-7" value="Связь" style="shape=umlLifeline;perimeter=lifelinePerimeter;whiteSpace=wrap;html=1;container=1;collapsible=0;recursiveResize=0;outlineConnect=0;rounded=1;shadow=0;comic=0;labelBackgroundColor=none;strokeWidth=1;fontFamily=Verdana;fontSize=12;align=center;" parent="1" vertex="1">
          <mxGeometry x="480" y="-730" width="100" height="370" as="geometry" />
        </mxCell>
        <mxCell id="u7iF0jcWyzdp6KOEpQAe-8" value="" style="html=1;points=[];perimeter=orthogonalPerimeter;rounded=0;shadow=0;comic=0;labelBackgroundColor=none;strokeWidth=1;fontFamily=Verdana;fontSize=12;align=center;" parent="u7iF0jcWyzdp6KOEpQAe-7" vertex="1">
          <mxGeometry x="45" y="90" width="10" height="100" as="geometry" />
        </mxCell>
        <mxCell id="u7iF0jcWyzdp6KOEpQAe-9" value="Связаться&amp;nbsp;" style="html=1;verticalAlign=bottom;endArrow=block;labelBackgroundColor=none;fontFamily=Verdana;fontSize=12;edgeStyle=elbowEdgeStyle;elbow=vertical;exitX=1.016;exitY=0.073;exitDx=0;exitDy=0;exitPerimeter=0;" parent="1" source="u7iF0jcWyzdp6KOEpQAe-2" target="u7iF0jcWyzdp6KOEpQAe-8" edge="1">
          <mxGeometry relative="1" as="geometry">
            <mxPoint x="390" y="-610" as="sourcePoint" />
            <mxPoint x="525" y="-610" as="targetPoint" />
          </mxGeometry>
        </mxCell>
        <mxCell id="u7iF0jcWyzdp6KOEpQAe-5" value="Пользователь" style="shape=umlLifeline;perimeter=lifelinePerimeter;whiteSpace=wrap;html=1;container=1;collapsible=0;recursiveResize=0;outlineConnect=0;rounded=1;shadow=0;comic=0;labelBackgroundColor=none;strokeWidth=1;fontFamily=Verdana;fontSize=12;align=center;" parent="1" vertex="1">
          <mxGeometry x="200" y="-730" width="100" height="370" as="geometry" />
        </mxCell>
        <mxCell id="u7iF0jcWyzdp6KOEpQAe-6" value="" style="html=1;points=[];perimeter=orthogonalPerimeter;rounded=0;shadow=0;comic=0;labelBackgroundColor=none;strokeWidth=1;fontFamily=Verdana;fontSize=12;align=center;" parent="u7iF0jcWyzdp6KOEpQAe-5" vertex="1">
          <mxGeometry x="45" y="90" width="10" height="270" as="geometry" />
        </mxCell>
        <mxCell id="u7iF0jcWyzdp6KOEpQAe-10" value="Получить услугу" style="html=1;verticalAlign=bottom;endArrow=block;labelBackgroundColor=none;fontFamily=Verdana;fontSize=12;edgeStyle=elbowEdgeStyle;elbow=vertical;exitX=1;exitY=0.997;exitDx=0;exitDy=0;exitPerimeter=0;" parent="1" source="u7iF0jcWyzdp6KOEpQAe-8" edge="1">
          <mxGeometry relative="1" as="geometry">
            <mxPoint x="490" y="-520" as="sourcePoint" />
            <mxPoint x="664" y="-540" as="targetPoint" />
          </mxGeometry>
        </mxCell>
        <mxCell id="u7iF0jcWyzdp6KOEpQAe-12" value="Услуга" style="html=1;verticalAlign=bottom;endArrow=open;dashed=1;endSize=8;labelBackgroundColor=none;fontFamily=Verdana;fontSize=12;edgeStyle=elbowEdgeStyle;elbow=vertical;exitX=-0.063;exitY=0.799;exitDx=0;exitDy=0;exitPerimeter=0;entryX=1.045;entryY=0.881;entryDx=0;entryDy=0;entryPerimeter=0;" parent="1" source="u7iF0jcWyzdp6KOEpQAe-4" target="u7iF0jcWyzdp6KOEpQAe-2" edge="1">
          <mxGeometry relative="1" as="geometry">
            <mxPoint x="387" y="-410" as="targetPoint" />
            <Array as="points">
              <mxPoint x="530" y="-438" />
              <mxPoint x="585" y="-410" />
            </Array>
            <mxPoint x="854" y="-412" as="sourcePoint" />
          </mxGeometry>
        </mxCell>
        <mxCell id="u7iF0jcWyzdp6KOEpQAe-13" value="Заказ" style="html=1;verticalAlign=bottom;endArrow=open;dashed=1;endSize=8;labelBackgroundColor=none;fontFamily=Verdana;fontSize=12;edgeStyle=elbowEdgeStyle;elbow=vertical;exitX=0.049;exitY=0.871;exitDx=0;exitDy=0;exitPerimeter=0;" parent="1" source="u7iF0jcWyzdp6KOEpQAe-2" target="u7iF0jcWyzdp6KOEpQAe-6" edge="1">
          <mxGeometry relative="1" as="geometry">
            <mxPoint x="255" y="-456" as="targetPoint" />
            <Array as="points">
              <mxPoint x="360" y="-440" />
            </Array>
            <mxPoint x="360" y="-450" as="sourcePoint" />
          </mxGeometry>
        </mxCell>
        <mxCell id="u7iF0jcWyzdp6KOEpQAe-15" value="Оформить заказ" style="html=1;verticalAlign=bottom;endArrow=block;labelBackgroundColor=none;fontFamily=Verdana;fontSize=12;edgeStyle=elbowEdgeStyle;elbow=vertical;exitX=1.016;exitY=0.297;exitDx=0;exitDy=0;exitPerimeter=0;" parent="1" source="u7iF0jcWyzdp6KOEpQAe-6" target="u7iF0jcWyzdp6KOEpQAe-2" edge="1">
          <mxGeometry relative="1" as="geometry">
            <mxPoint x="320" y="-560" as="sourcePoint" />
            <mxPoint x="375" y="-560" as="targetPoint" />
            <Array as="points">
              <mxPoint x="320" y="-560" />
            </Array>
          </mxGeometry>
        </mxCell>
      </root>
    </mxGraphModel>
  </diagram>
</mxfile>
